<mxfile host="app.diagrams.net" modified="2024-04-12T10:31:48.092Z" agent="Mozilla/5.0 (Windows NT 10.0; Win64; x64; rv:123.0) Gecko/20100101 Firefox/123.0" etag="g7QLyb0h2SJ9N7Hl-jBi" version="24.1.0" type="github">
  <diagram name="gap" id="mRCGRJypWsmpzb2VFlEM">
    <mxGraphModel dx="2261" dy="1923" grid="1" gridSize="10" guides="1" tooltips="1" connect="1" arrows="1" fold="1" page="1" pageScale="1" pageWidth="827" pageHeight="1169" math="0" shadow="0">
      <root>
        <mxCell id="0" />
        <mxCell id="1" parent="0" />
        <mxCell id="X8uHloKiftdKXZpLW0yQ-24" style="edgeStyle=orthogonalEdgeStyle;rounded=0;orthogonalLoop=1;jettySize=auto;html=1;exitX=0.104;exitY=0.967;exitDx=0;exitDy=0;exitPerimeter=0;" edge="1" parent="1" source="X8uHloKiftdKXZpLW0yQ-1" target="X8uHloKiftdKXZpLW0yQ-9">
          <mxGeometry relative="1" as="geometry" />
        </mxCell>
        <mxCell id="X8uHloKiftdKXZpLW0yQ-27" style="edgeStyle=orthogonalEdgeStyle;rounded=0;orthogonalLoop=1;jettySize=auto;html=1;exitX=0.365;exitY=0.983;exitDx=0;exitDy=0;exitPerimeter=0;" edge="1" parent="1" source="X8uHloKiftdKXZpLW0yQ-1" target="X8uHloKiftdKXZpLW0yQ-4">
          <mxGeometry relative="1" as="geometry" />
        </mxCell>
        <mxCell id="X8uHloKiftdKXZpLW0yQ-33" value="&lt;div&gt;创建采购单&lt;/div&gt;&lt;div&gt;入库通知&lt;/div&gt;&lt;div&gt;入库反馈&lt;/div&gt;&lt;div&gt;单据状态更新&lt;/div&gt;&lt;div&gt;单据取消&lt;/div&gt;&lt;div&gt;调拨通知&lt;/div&gt;&lt;div&gt;调拨反馈&lt;/div&gt;&lt;div&gt;出库通知&lt;/div&gt;&lt;div&gt;出库反馈&lt;/div&gt;&lt;div&gt;出库批量反馈&lt;/div&gt;&lt;div&gt;库存调整通知&lt;br&gt;&lt;/div&gt;" style="edgeStyle=orthogonalEdgeStyle;rounded=0;orthogonalLoop=1;jettySize=auto;html=1;exitX=0.888;exitY=0.981;exitDx=0;exitDy=0;entryX=0.5;entryY=0;entryDx=0;entryDy=0;exitPerimeter=0;" edge="1" parent="1" source="X8uHloKiftdKXZpLW0yQ-1" target="X8uHloKiftdKXZpLW0yQ-3">
          <mxGeometry relative="1" as="geometry" />
        </mxCell>
        <mxCell id="X8uHloKiftdKXZpLW0yQ-1" value="Open Api Ingress Gateway" style="rounded=1;whiteSpace=wrap;html=1;strokeWidth=2;fontSize=18;fontStyle=1;align=center;" vertex="1" parent="1">
          <mxGeometry y="48" width="1160" height="60" as="geometry" />
        </mxCell>
        <mxCell id="X8uHloKiftdKXZpLW0yQ-18" style="edgeStyle=orthogonalEdgeStyle;rounded=0;orthogonalLoop=1;jettySize=auto;html=1;exitX=0.5;exitY=1;exitDx=0;exitDy=0;" edge="1" parent="1" source="X8uHloKiftdKXZpLW0yQ-2" target="X8uHloKiftdKXZpLW0yQ-17">
          <mxGeometry relative="1" as="geometry" />
        </mxCell>
        <mxCell id="X8uHloKiftdKXZpLW0yQ-2" value="Open Spi Engress Gateway" style="rounded=1;whiteSpace=wrap;html=1;strokeWidth=2;fontSize=18;fontStyle=1;align=center;" vertex="1" parent="1">
          <mxGeometry x="900" y="525" width="260" height="60" as="geometry" />
        </mxCell>
        <mxCell id="X8uHloKiftdKXZpLW0yQ-12" value="&lt;div&gt;入库通知&lt;/div&gt;&lt;div&gt;ERP入库单反馈&lt;/div&gt;&lt;div&gt;调拨通知接口&lt;/div&gt;&lt;div&gt;调拨反馈&lt;/div&gt;&lt;div&gt;出库通知&lt;/div&gt;&lt;div&gt;单据取消&lt;/div&gt;&lt;div&gt;单据状态更新&lt;/div&gt;&lt;div&gt;库存调整通知&lt;/div&gt;&lt;div&gt;ERP出库单反馈&lt;br&gt;&lt;/div&gt;" style="edgeStyle=orthogonalEdgeStyle;rounded=0;orthogonalLoop=1;jettySize=auto;html=1;exitX=0.5;exitY=1;exitDx=0;exitDy=0;" edge="1" parent="1" source="X8uHloKiftdKXZpLW0yQ-3" target="X8uHloKiftdKXZpLW0yQ-2">
          <mxGeometry relative="1" as="geometry" />
        </mxCell>
        <mxCell id="X8uHloKiftdKXZpLW0yQ-3" value="MM" style="rounded=1;whiteSpace=wrap;html=1;strokeWidth=2;fontSize=18;fontStyle=1;align=center;" vertex="1" parent="1">
          <mxGeometry x="930" y="287" width="200" height="60" as="geometry" />
        </mxCell>
        <mxCell id="X8uHloKiftdKXZpLW0yQ-21" style="edgeStyle=orthogonalEdgeStyle;rounded=0;orthogonalLoop=1;jettySize=auto;html=1;exitX=0.5;exitY=1;exitDx=0;exitDy=0;" edge="1" parent="1" source="X8uHloKiftdKXZpLW0yQ-4" target="X8uHloKiftdKXZpLW0yQ-20">
          <mxGeometry relative="1" as="geometry" />
        </mxCell>
        <mxCell id="X8uHloKiftdKXZpLW0yQ-4" value="&lt;div&gt;Member-Api&lt;/div&gt;&lt;div&gt;（EBS）&lt;br&gt;&lt;/div&gt;" style="rounded=1;whiteSpace=wrap;html=1;strokeWidth=2;fontSize=18;fontStyle=1;align=center;" vertex="1" parent="1">
          <mxGeometry x="323" y="287" width="200" height="60" as="geometry" />
        </mxCell>
        <mxCell id="X8uHloKiftdKXZpLW0yQ-5" value="&lt;div&gt;Gap-Pos&lt;/div&gt;&lt;div&gt;(Adapter)&lt;br&gt;&lt;/div&gt;" style="rounded=1;whiteSpace=wrap;html=1;strokeWidth=2;fontSize=18;fontStyle=1;align=center;" vertex="1" parent="1">
          <mxGeometry x="20" y="-101.98" width="200" height="60" as="geometry" />
        </mxCell>
        <mxCell id="X8uHloKiftdKXZpLW0yQ-7" style="edgeStyle=orthogonalEdgeStyle;rounded=0;orthogonalLoop=1;jettySize=auto;html=1;exitX=0.5;exitY=1;exitDx=0;exitDy=0;" edge="1" parent="1" source="X8uHloKiftdKXZpLW0yQ-6" target="X8uHloKiftdKXZpLW0yQ-5">
          <mxGeometry relative="1" as="geometry" />
        </mxCell>
        <mxCell id="X8uHloKiftdKXZpLW0yQ-6" value="&lt;div&gt;Pos Service&lt;br&gt;&lt;/div&gt;" style="rounded=1;whiteSpace=wrap;html=1;strokeWidth=2;fontSize=18;fontStyle=1;align=center;" vertex="1" parent="1">
          <mxGeometry x="20" y="-251.98" width="200" height="60" as="geometry" />
        </mxCell>
        <mxCell id="X8uHloKiftdKXZpLW0yQ-8" style="edgeStyle=orthogonalEdgeStyle;rounded=0;orthogonalLoop=1;jettySize=auto;html=1;exitX=0.5;exitY=1;exitDx=0;exitDy=0;" edge="1" parent="1" source="X8uHloKiftdKXZpLW0yQ-5">
          <mxGeometry relative="1" as="geometry">
            <mxPoint x="120" y="50" as="targetPoint" />
          </mxGeometry>
        </mxCell>
        <mxCell id="X8uHloKiftdKXZpLW0yQ-9" value="&lt;div&gt;Promotion&lt;br&gt;&lt;/div&gt;" style="rounded=1;whiteSpace=wrap;html=1;strokeWidth=2;fontSize=18;fontStyle=1;align=center;" vertex="1" parent="1">
          <mxGeometry x="20" y="287" width="200" height="60" as="geometry" />
        </mxCell>
        <mxCell id="X8uHloKiftdKXZpLW0yQ-10" value="&lt;div&gt;Gap-Sap&lt;/div&gt;&lt;div&gt;(Adapter)&lt;br&gt;&lt;/div&gt;" style="rounded=1;whiteSpace=wrap;html=1;strokeWidth=2;fontSize=18;fontStyle=1;align=center;" vertex="1" parent="1">
          <mxGeometry x="940" y="-100" width="200" height="60" as="geometry" />
        </mxCell>
        <mxCell id="X8uHloKiftdKXZpLW0yQ-11" value="&lt;div&gt;Gap-Centric&lt;/div&gt;&lt;div&gt;(Adapter)&lt;br&gt;&lt;/div&gt;" style="rounded=1;whiteSpace=wrap;html=1;strokeWidth=2;fontSize=18;fontStyle=1;align=center;" vertex="1" parent="1">
          <mxGeometry x="633" y="-100" width="200" height="60" as="geometry" />
        </mxCell>
        <mxCell id="X8uHloKiftdKXZpLW0yQ-14" style="edgeStyle=orthogonalEdgeStyle;rounded=0;orthogonalLoop=1;jettySize=auto;html=1;exitX=0.5;exitY=1;exitDx=0;exitDy=0;" edge="1" parent="1" source="X8uHloKiftdKXZpLW0yQ-13" target="X8uHloKiftdKXZpLW0yQ-10">
          <mxGeometry relative="1" as="geometry" />
        </mxCell>
        <mxCell id="X8uHloKiftdKXZpLW0yQ-13" value="SAP" style="rounded=1;whiteSpace=wrap;html=1;strokeWidth=2;fontSize=18;fontStyle=1;align=center;" vertex="1" parent="1">
          <mxGeometry x="940" y="-251.98" width="200" height="60" as="geometry" />
        </mxCell>
        <mxCell id="X8uHloKiftdKXZpLW0yQ-15" style="edgeStyle=orthogonalEdgeStyle;rounded=0;orthogonalLoop=1;jettySize=auto;html=1;exitX=0.5;exitY=1;exitDx=0;exitDy=0;entryX=0.896;entryY=0.033;entryDx=0;entryDy=0;entryPerimeter=0;" edge="1" parent="1" source="X8uHloKiftdKXZpLW0yQ-10" target="X8uHloKiftdKXZpLW0yQ-1">
          <mxGeometry relative="1" as="geometry" />
        </mxCell>
        <mxCell id="X8uHloKiftdKXZpLW0yQ-16" value="SAP" style="rounded=1;whiteSpace=wrap;html=1;strokeWidth=2;fontSize=18;fontStyle=1;align=center;" vertex="1" parent="1">
          <mxGeometry x="930" y="861.98" width="200" height="60" as="geometry" />
        </mxCell>
        <mxCell id="X8uHloKiftdKXZpLW0yQ-19" style="edgeStyle=orthogonalEdgeStyle;rounded=0;orthogonalLoop=1;jettySize=auto;html=1;exitX=0.5;exitY=1;exitDx=0;exitDy=0;" edge="1" parent="1" source="X8uHloKiftdKXZpLW0yQ-17" target="X8uHloKiftdKXZpLW0yQ-16">
          <mxGeometry relative="1" as="geometry" />
        </mxCell>
        <mxCell id="X8uHloKiftdKXZpLW0yQ-17" value="&lt;div&gt;Gap-Sap&lt;/div&gt;&lt;div&gt;(Adapter)&lt;/div&gt;" style="rounded=1;whiteSpace=wrap;html=1;strokeWidth=2;fontSize=18;fontStyle=1;align=center;" vertex="1" parent="1">
          <mxGeometry x="930" y="680" width="200" height="60" as="geometry" />
        </mxCell>
        <mxCell id="X8uHloKiftdKXZpLW0yQ-23" style="edgeStyle=orthogonalEdgeStyle;rounded=0;orthogonalLoop=1;jettySize=auto;html=1;exitX=0.5;exitY=1;exitDx=0;exitDy=0;" edge="1" parent="1" source="X8uHloKiftdKXZpLW0yQ-20" target="X8uHloKiftdKXZpLW0yQ-22">
          <mxGeometry relative="1" as="geometry" />
        </mxCell>
        <mxCell id="X8uHloKiftdKXZpLW0yQ-20" value="Gap-Adapter" style="rounded=1;whiteSpace=wrap;html=1;strokeWidth=2;fontSize=18;fontStyle=1;align=center;" vertex="1" parent="1">
          <mxGeometry x="323" y="680" width="200" height="60" as="geometry" />
        </mxCell>
        <mxCell id="X8uHloKiftdKXZpLW0yQ-22" value="Avatar CRM" style="rounded=1;whiteSpace=wrap;html=1;strokeWidth=2;fontSize=18;fontStyle=1;align=center;" vertex="1" parent="1">
          <mxGeometry x="323" y="861.98" width="200" height="60" as="geometry" />
        </mxCell>
        <mxCell id="X8uHloKiftdKXZpLW0yQ-25" value="&lt;div&gt;Gap-Adapter&lt;/div&gt;&lt;div&gt;(Adapter)&lt;br&gt;&lt;/div&gt;" style="rounded=1;whiteSpace=wrap;html=1;strokeWidth=2;fontSize=18;fontStyle=1;align=center;" vertex="1" parent="1">
          <mxGeometry x="327" y="-100" width="200" height="60" as="geometry" />
        </mxCell>
        <mxCell id="X8uHloKiftdKXZpLW0yQ-31" style="edgeStyle=orthogonalEdgeStyle;rounded=0;orthogonalLoop=1;jettySize=auto;html=1;exitX=0.5;exitY=1;exitDx=0;exitDy=0;" edge="1" parent="1" source="X8uHloKiftdKXZpLW0yQ-26" target="X8uHloKiftdKXZpLW0yQ-11">
          <mxGeometry relative="1" as="geometry" />
        </mxCell>
        <mxCell id="X8uHloKiftdKXZpLW0yQ-26" value="&lt;div&gt;Centric&lt;/div&gt;" style="rounded=1;whiteSpace=wrap;html=1;strokeWidth=2;fontSize=18;fontStyle=1;align=center;" vertex="1" parent="1">
          <mxGeometry x="633" y="-251.98" width="200" height="60" as="geometry" />
        </mxCell>
        <mxCell id="X8uHloKiftdKXZpLW0yQ-28" value="SOM" style="rounded=1;whiteSpace=wrap;html=1;strokeWidth=2;fontSize=18;fontStyle=1;align=center;" vertex="1" parent="1">
          <mxGeometry x="627" y="287" width="200" height="60" as="geometry" />
        </mxCell>
        <mxCell id="X8uHloKiftdKXZpLW0yQ-29" style="edgeStyle=orthogonalEdgeStyle;rounded=0;orthogonalLoop=1;jettySize=auto;html=1;exitX=0.5;exitY=1;exitDx=0;exitDy=0;entryX=0.368;entryY=0.011;entryDx=0;entryDy=0;entryPerimeter=0;" edge="1" parent="1" source="X8uHloKiftdKXZpLW0yQ-25" target="X8uHloKiftdKXZpLW0yQ-1">
          <mxGeometry relative="1" as="geometry" />
        </mxCell>
        <mxCell id="X8uHloKiftdKXZpLW0yQ-30" style="edgeStyle=orthogonalEdgeStyle;rounded=0;orthogonalLoop=1;jettySize=auto;html=1;exitX=0.5;exitY=1;exitDx=0;exitDy=0;entryX=0.632;entryY=0.045;entryDx=0;entryDy=0;entryPerimeter=0;" edge="1" parent="1" source="X8uHloKiftdKXZpLW0yQ-11" target="X8uHloKiftdKXZpLW0yQ-1">
          <mxGeometry relative="1" as="geometry" />
        </mxCell>
      </root>
    </mxGraphModel>
  </diagram>
</mxfile>
